<svg width="63" height="64" viewBox="0 0 63 64" fill="none" xmlns="http://www.w3.org/2000/svg">
<path d="M36.9421 4.62137L42.4854 15.9772C43.2414 17.558 45.2571 19.0742 46.9579 19.3646L57.0053 21.0744C63.4306 22.1713 64.9425 26.9459 60.3125 31.656L52.5013 39.6567C51.1785 41.0116 50.4541 43.6248 50.8635 45.4959L53.0998 55.4C54.8636 63.2394 50.8005 66.2719 44.0288 62.1748L34.6113 56.4646C32.9105 55.4323 30.1073 55.4323 28.375 56.4646L18.9575 62.1748C12.2173 66.2719 8.12274 63.2071 9.88654 55.4L12.1228 45.4959C12.5323 43.6248 11.8078 41.0116 10.485 39.6567L2.67384 31.656C-1.92465 26.9459 -0.444313 22.1713 5.98098 21.0744L16.0284 19.3646C17.6977 19.0742 19.7135 17.558 20.4694 15.9772L26.0128 4.62137C29.0364 -1.54046 33.9499 -1.54046 36.9421 4.62137Z" fill="#FFBC07"/>
</svg>
