<svg width="28" height="28" viewBox="0 0 28 28" fill="none" xmlns="http://www.w3.org/2000/svg">
<path d="M9.37366 5.80908C12.4926 5.57408 15.6254 5.59112 18.7418 5.85693L20.6354 6.01807C21.2189 6.06774 21.7691 6.31154 22.1969 6.71143C22.5713 7.06142 22.8327 7.51309 22.9518 8.0083L22.9938 8.22314L23.1129 9.00244V9.00342C23.5101 11.5943 23.4733 14.2333 23.0035 16.812C22.9098 17.3264 22.6384 17.7915 22.2369 18.1265C21.8354 18.4614 21.3292 18.645 20.8063 18.645H10.3346C10.0512 18.645 9.77188 18.7064 9.51526 18.8247L9.40686 18.8784L4.84436 21.3306C4.78721 21.3613 4.72269 21.377 4.65784 21.3755C4.59304 21.374 4.52987 21.3551 4.47424 21.3218C4.41862 21.2885 4.37242 21.2415 4.34045 21.1851C4.30857 21.1287 4.29164 21.0652 4.29163 21.0005V11.064C4.2919 9.73983 4.79256 8.4645 5.69299 7.49365C6.59354 6.52278 7.8276 5.92729 9.14807 5.82764H9.14905L9.37463 5.81006L9.37366 5.80908ZM9.33362 10.5835C8.81435 10.5835 8.31609 10.7896 7.94885 11.1567C7.58164 11.524 7.37468 12.0222 7.37463 12.5415C7.37463 13.0609 7.58159 13.559 7.94885 13.9263C8.3161 14.2935 8.81427 14.5005 9.33362 14.5005C9.85288 14.5004 10.3512 14.2935 10.7184 13.9263C11.0855 13.559 11.2916 13.0608 11.2916 12.5415C11.2916 12.0222 11.0856 11.5239 10.7184 11.1567C10.3512 10.7896 9.85288 10.5836 9.33362 10.5835ZM13.9996 10.5835C13.4804 10.5836 12.9821 10.7896 12.6149 11.1567C12.2477 11.5239 12.0417 12.0222 12.0416 12.5415C12.0416 13.0608 12.2478 13.559 12.6149 13.9263C12.9821 14.2935 13.4804 14.5004 13.9996 14.5005C14.519 14.5005 15.0171 14.2935 15.3844 13.9263C15.7517 13.559 15.9586 13.0609 15.9586 12.5415C15.9586 12.0222 15.7516 11.524 15.3844 11.1567C15.0172 10.7896 14.5189 10.5835 13.9996 10.5835ZM18.6666 10.5835C18.1473 10.5835 17.6491 10.7895 17.2819 11.1567C16.9146 11.524 16.7087 12.0222 16.7086 12.5415C16.7086 13.0608 16.9147 13.559 17.2819 13.9263C17.6491 14.2935 18.1472 14.5005 18.6666 14.5005C19.186 14.5005 19.6841 14.2935 20.0514 13.9263C20.4186 13.559 20.6246 13.0608 20.6246 12.5415C20.6246 12.0222 20.4186 11.524 20.0514 11.1567C19.6841 10.7895 19.186 10.5835 18.6666 10.5835Z" fill="#31487A" stroke="#31487A"/>
</svg>
