<svg width="28" height="28" viewBox="0 0 28 28" fill="none" xmlns="http://www.w3.org/2000/svg">
<path d="M4.00005 14H12C12.4419 14 12.8 13.6418 12.8 13.2C12.8 11.8767 11.9791 10.6923 10.74 10.2279L10.494 10.1357C8.88597 9.53301 7.11413 9.53301 5.50613 10.1357L5.26011 10.2279C4.02101 10.6923 3.20005 11.8767 3.20005 13.2C3.20005 13.6418 3.55822 14 4.00005 14Z" fill="#C2CCDE" fill-opacity="0.25"/>
<path d="M9.21976 7.77345C8.45417 8.16672 7.54593 8.16672 6.78034 7.77345C6.06783 7.40745 5.55734 6.74084 5.38973 5.95755L5.345 5.7485C5.1736 4.9475 5.35668 4.11152 5.84716 3.45547L5.91899 3.3594C6.40954 2.70326 7.18081 2.31689 8.00005 2.31689C8.81929 2.31689 9.59056 2.70326 10.0811 3.3594L10.1529 3.45547C10.6434 4.11152 10.8265 4.9475 10.6551 5.7485L10.6104 5.95755C10.4428 6.74084 9.93227 7.40745 9.21976 7.77345Z" fill="#C2CCDE" fill-opacity="0.25"/>
<path d="M4.00005 14H12C12.4419 14 12.8 13.6418 12.8 13.2C12.8 11.8767 11.9791 10.6923 10.74 10.2279L10.494 10.1357C8.88597 9.53301 7.11413 9.53301 5.50613 10.1357L5.26011 10.2279C4.02101 10.6923 3.20005 11.8767 3.20005 13.2C3.20005 13.6418 3.55822 14 4.00005 14Z" stroke="#414141" stroke-linecap="round" stroke-linejoin="round"/>
<path d="M9.21976 7.77345C8.45417 8.16672 7.54593 8.16672 6.78034 7.77345C6.06783 7.40745 5.55734 6.74084 5.38973 5.95755L5.345 5.7485C5.1736 4.9475 5.35668 4.11152 5.84716 3.45547L5.91899 3.3594C6.40954 2.70326 7.18081 2.31689 8.00005 2.31689C8.81929 2.31689 9.59056 2.70326 10.0811 3.3594L10.1529 3.45547C10.6434 4.11152 10.8265 4.9475 10.6551 5.7485L10.6104 5.95755C10.4428 6.74084 9.93227 7.40745 9.21976 7.77345Z" stroke="#414141" stroke-linecap="round" stroke-linejoin="round"/>
</svg>
