<svg width="28" height="28" viewBox="0 0 28 28" fill="none" xmlns="http://www.w3.org/2000/svg">
<path d="M18.5 25.0002H6.49999C5.83725 25.0002 5.29999 24.463 5.29999 23.8002C5.29999 21.8153 6.53143 20.0387 8.39008 19.3421L8.7591 19.2038C11.1711 18.2998 13.8289 18.2998 16.2409 19.2038L16.6099 19.3421C18.4685 20.0387 19.7 21.8153 19.7 23.8002C19.7 24.463 19.1627 25.0002 18.5 25.0002Z" fill="#31487A"/>
<path d="M10.6704 15.6604C11.8188 16.2503 13.1812 16.2503 14.3296 15.6604C15.3983 15.1114 16.1641 14.1115 16.4155 12.9366L16.4826 12.623C16.7397 11.4215 16.465 10.1675 15.7293 9.18345L15.6216 9.03934C14.8858 8.05513 13.7289 7.47559 12.5 7.47559C11.2711 7.47559 10.1142 8.05513 9.3784 9.03934L9.27066 9.18345C8.53494 10.1675 8.26032 11.4215 8.51741 12.623L8.58451 12.9366C8.83592 14.1115 9.60166 15.1114 10.6704 15.6604Z" fill="#31487A"/>
<path d="M18.5 25.0002H6.49999C5.83725 25.0002 5.29999 24.463 5.29999 23.8002C5.29999 21.8153 6.53143 20.0387 8.39008 19.3421L8.7591 19.2038C11.1711 18.2998 13.8289 18.2998 16.2409 19.2038L16.6099 19.3421C18.4685 20.0387 19.7 21.8153 19.7 23.8002C19.7 24.463 19.1627 25.0002 18.5 25.0002Z" stroke="#414141" stroke-linecap="round" stroke-linejoin="round"/>
<path d="M10.6704 15.6604C11.8188 16.2503 13.1812 16.2503 14.3296 15.6604C15.3983 15.1114 16.1641 14.1115 16.4155 12.9366L16.4826 12.623C16.7397 11.4215 16.465 10.1675 15.7293 9.18345L15.6216 9.03934C14.8858 8.05513 13.7289 7.47559 12.5 7.47559C11.2711 7.47559 10.1142 8.05513 9.3784 9.03934L9.27066 9.18345C8.53494 10.1675 8.26032 11.4215 8.51741 12.623L8.58451 12.9366C8.83592 14.1115 9.60166 15.1114 10.6704 15.6604Z" stroke="#414141" stroke-linecap="round" stroke-linejoin="round"/>
</svg>
